<svg id="Layer_1" data-name="Layer 1" xmlns="http://www.w3.org/2000/svg" viewBox="0 0 15 15"><defs><style>.cls-1{fill:#24a9e8;}</style></defs><rect class="cls-1" x="2" y="6" width="2" height="1"/><rect class="cls-1" x="5" y="6" width="2" height="1"/><rect class="cls-1" x="8" y="6" width="2" height="1"/><rect class="cls-1" x="11" y="6" width="2" height="1"/><rect class="cls-1" x="2" y="8" width="2" height="1"/><rect class="cls-1" x="5" y="8" width="2" height="1"/><rect class="cls-1" x="8" y="8" width="2" height="1"/><rect class="cls-1" x="11" y="8" width="2" height="1"/><rect class="cls-1" x="2" y="10" width="2" height="1"/><rect class="cls-1" x="5" y="10" width="2" height="1"/><rect class="cls-1" x="8" y="10" width="2" height="1"/><rect class="cls-1" x="11" y="10" width="2" height="1"/><rect class="cls-1" x="2" y="12" width="2" height="1"/><rect class="cls-1" x="5" y="12" width="2" height="1"/><rect class="cls-1" x="8" y="12" width="2" height="1"/><rect class="cls-1" x="11" y="12" width="2" height="1"/><path class="cls-1" d="M14,1.5H12.5V.5h-1v1h-7V.5h-1v1H2A1.54,1.54,0,0,0,.5,3V14A1.54,1.54,0,0,0,2,15.5H14A1.54,1.54,0,0,0,15.5,14V3A1.54,1.54,0,0,0,14,1.5Zm-.5,1v1h-1v-1Zm-3,0h1v1h-1Zm-5,0v1h-1v-1Zm-3,0h1v1h-1ZM14.5,14a.47.47,0,0,1-.5.5H2a.47.47,0,0,1-.5-.5V5.5h13Z" transform="translate(-0.5 -0.5)"/></svg>