<svg id="Layer_1" data-name="Layer 1" xmlns="http://www.w3.org/2000/svg" viewBox="0 0 14 14"><defs><style>.cls-1{fill:#f5fcff;}.cls-2{fill:#24a9e8;}</style></defs><rect class="cls-1" x="1" y="1" width="12" height="12"/><path class="cls-2" d="M4.4,5.9h7.1c.4,0,.6.5.3.7L8.2,10.2a.37.37,0,0,1-.6,0L4.1,6.7C3.9,6.4,4,5.9,4.4,5.9Z" transform="translate(-1 -1)"/><path class="cls-2" d="M13,2a.94.94,0,0,1,1,1V13a.94.94,0,0,1-1,1H3a.94.94,0,0,1-1-1V3A.94.94,0,0,1,3,2H13m0-1H3A2,2,0,0,0,1,3V13a2,2,0,0,0,2,2H13a2,2,0,0,0,2-2V3a2,2,0,0,0-2-2Z" transform="translate(-1 -1)"/></svg>