<svg id="카카오톡" xmlns="http://www.w3.org/2000/svg" xmlns:xlink="http://www.w3.org/1999/xlink" viewBox="0 0 170.08 170.08"><defs><style>.cls-1{clip-path:url(#clip-path);}.cls-2{fill:none;}.cls-3{isolation:isolate;}.cls-4{mask:url(#mask);}.cls-5{clip-path:url(#clip-path-2);}.cls-6{fill:#ffea00;}.cls-7{fill:#3b1e1d;}.cls-8{filter:url(#luminosity-noclip);}</style><clipPath id="clip-path"><rect class="cls-2" x="-21174.7" y="-21071.31" width="28489.83" height="28489.86"/></clipPath><filter id="luminosity-noclip" x="-21174.7" y="-21071.31" width="28489.83" height="28489.86" filterUnits="userSpaceOnUse" color-interpolation-filters="sRGB"><feFlood flood-color="#fff" result="bg"/><feBlend in="SourceGraphic" in2="bg"/></filter><mask id="mask" x="-21174.7" y="-21071.31" width="28489.83" height="28489.86" maskUnits="userSpaceOnUse"><g class="cls-8"/></mask><clipPath id="clip-path-2" transform="translate(0 0)"><rect class="cls-2" width="170.08" height="170.08"/></clipPath></defs><g class="cls-4"><g class="cls-5"><path class="cls-6" d="M170.08,156.46a13.62,13.62,0,0,1-13.63,13.62H13.63A13.63,13.63,0,0,1,0,156.46V13.62A13.63,13.63,0,0,1,13.63,0H156.45a13.62,13.62,0,0,1,13.63,13.62Z" transform="translate(0 0)"/><rect class="cls-6" width="170.08" height="170.08"/></g></g><path class="cls-7" d="M86.79,27.19c-36,0-65.24,23.07-65.24,51.54,0,18.3,12.1,34.34,30.28,43.51l-6.16,23a1.91,1.91,0,0,0,.47,2,1.84,1.84,0,0,0,1.33.55,1.92,1.92,0,0,0,1.14-.44l26.44-17.85a82.55,82.55,0,0,0,11.74.86c36,0,65.25-23.07,65.25-51.54S122.82,27.19,86.79,27.19" transform="translate(0 0)"/><path class="cls-6" d="M44.44,70.56h-7.1a4.69,4.69,0,0,1-2.52-.67A2.81,2.81,0,0,1,33.52,68a6.46,6.46,0,0,1-.1-.73,2.87,2.87,0,0,1,1.11-2.41A4.44,4.44,0,0,1,37.32,64H59a4.59,4.59,0,0,1,2.52.67,2.8,2.8,0,0,1,1.32,1.9,3.35,3.35,0,0,1,0,.71,3,3,0,0,1-1.08,2.46,4.41,4.41,0,0,1-2.78.85H52V95a3.9,3.9,0,0,1-1,2.83,3.59,3.59,0,0,1-2.75,1.07,3.87,3.87,0,0,1-2.4-.77A3.53,3.53,0,0,1,44.5,96a3.69,3.69,0,0,1-.07-1Z" transform="translate(0 0)"/><path class="cls-6" d="M64.74,65.74a3.3,3.3,0,0,1,1.37-1.83,4.27,4.27,0,0,1,2.29-.55h1.81a4.75,4.75,0,0,1,2.45.59,4,4,0,0,1,1.56,2.27l9.07,26.29a15.88,15.88,0,0,1,.61,2.09,8,8,0,0,1,.13.9A3.25,3.25,0,0,1,83,97.93a3.4,3.4,0,0,1-2.49,1,3.21,3.21,0,0,1-3.38-2.14l-1.94-5.73H63.07l-2,5.73c-.46,1.42-1.59,2.14-3.36,2.14a3.48,3.48,0,0,1-2.22-.69,3.15,3.15,0,0,1-1.15-1.94,3.91,3.91,0,0,1-.07-.8,4.17,4.17,0,0,1,.2-1.38c.14-.53.32-1.08.51-1.61Zm4.54,6.1h-.1L64.76,85.63h8.79Z" transform="translate(0 0)"/><path class="cls-6" d="M85.2,67.25a3.93,3.93,0,0,1,1-2.83A3.6,3.6,0,0,1,89,63.36a3.71,3.71,0,0,1,2.41.78,3.56,3.56,0,0,1,1.25,2.12,3.67,3.67,0,0,1,.07,1V91.73h12.55a4.51,4.51,0,0,1,2.54.67,2.87,2.87,0,0,1,1.28,1.91,5,5,0,0,1,.1.72,2.91,2.91,0,0,1-1.11,2.43,4.46,4.46,0,0,1-2.79.86H89.6a4.86,4.86,0,0,1-2.83-.73,3.41,3.41,0,0,1-1.42-2.31,11.23,11.23,0,0,1-.16-1.54Z" transform="translate(0 0)"/><path class="cls-6" d="M109.93,67.25a4,4,0,0,1,1-2.83,4.09,4.09,0,0,1,5.15-.28,3.45,3.45,0,0,1,1.27,2.12,4.13,4.13,0,0,1,.07,1l0,11.38,11.8-13.56a8.83,8.83,0,0,1,1.43-1.3,2.83,2.83,0,0,1,1.57-.41,3.91,3.91,0,0,1,2.25.69,2.87,2.87,0,0,1,1.25,1.84s0,.13.05.29a1,1,0,0,0,0,.31,2.94,2.94,0,0,1-.35,1.43,7.1,7.1,0,0,1-.89,1.26l-7.72,8.43L136,92.07l.28.44a7.78,7.78,0,0,1,1.08,2.18s0,.12,0,.23v.25a3.42,3.42,0,0,1-1.12,2.88,4.38,4.38,0,0,1-2.74.88,3.84,3.84,0,0,1-1.87-.41,5,5,0,0,1-1.48-1.64L121.55,83l-4.13,4.3,0,7.78a4,4,0,0,1-1,2.83,3.6,3.6,0,0,1-2.75,1.07,3.88,3.88,0,0,1-2.41-.77A3.53,3.53,0,0,1,110,96a4.72,4.72,0,0,1-.07-1Z" transform="translate(0 0)"/></svg>