<svg id="레이어_1" data-name="레이어 1" xmlns="http://www.w3.org/2000/svg" viewBox="0 0 334.69 52.92"><defs><style>.cls-1{fill:#2e94c7;fill-rule:evenodd;}</style></defs><polygon class="cls-1" points="27.52 0.58 37.15 16.26 55.04 20.57 43.1 34.58 44.53 52.92 27.52 45.9 10.51 52.92 11.94 34.58 0 20.57 17.89 16.26 27.52 0.58 27.52 0.58"/><polygon class="cls-1" points="97.43 0.58 107.06 16.26 124.95 20.57 113.02 34.58 114.44 52.92 97.43 45.9 80.42 52.92 81.85 34.58 69.91 20.57 87.8 16.26 97.43 0.58 97.43 0.58"/><polygon class="cls-1" points="167.34 0.58 176.97 16.26 194.86 20.57 182.93 34.58 184.35 52.92 167.34 45.9 150.34 52.92 151.76 34.58 139.82 20.57 157.71 16.26 167.34 0.58 167.34 0.58"/><polygon class="cls-1" points="237.25 0.58 246.89 16.26 264.77 20.57 252.84 34.58 254.26 52.92 237.25 45.9 220.25 52.92 221.67 34.58 209.74 20.57 227.62 16.26 237.25 0.58 237.25 0.58"/><polygon class="cls-1" points="307.17 0 316.8 15.68 334.69 20 322.75 34 324.18 52.34 307.17 45.32 290.16 52.34 291.58 34 279.65 20 297.53 15.68 307.17 0 307.17 0"/></svg>